<svg xmlns="http://www.w3.org/2000/svg" viewBox="0 0 1000 1250" width="1000" height="1250">
<defs>
<linearGradient id="bg" x1="0" y1="0" x2="0.35" y2="1">
<stop offset="0" stop-color="#C2A283"/>
<stop offset="1" stop-color="#C2A283" stop-opacity="0.62"/>
</linearGradient>
<radialGradient id="plate" cx="45%" cy="38%" r="70%">
<stop offset="0" stop-color="#FFFFFF" stop-opacity="0.5"/>
<stop offset="1" stop-color="#FFFFFF" stop-opacity="0.12"/>
</radialGradient>
<filter id="soft" x="-25%" y="-25%" width="150%" height="150%">
<feGaussianBlur stdDeviation="13"/>
</filter>
<filter id="tiny" x="-25%" y="-25%" width="150%" height="150%">
<feGaussianBlur stdDeviation="2.4"/>
</filter>
<filter id="grain">
<feTurbulence type="fractalNoise" baseFrequency="0.85" numOctaves="4" stitchTiles="stitch"/>
<feColorMatrix type="saturate" values="0"/>
</filter>
<radialGradient id="vig" cx="50%" cy="46%" r="76%">
<stop offset="0.5" stop-color="#3A231A" stop-opacity="0"/>
<stop offset="1" stop-color="#3A231A" stop-opacity="0.4"/>
</radialGradient>
<clipPath id="dish"><circle cx="500" cy="620" r="330"/></clipPath>
</defs>
<rect width="1000" height="1250" fill="#EFE0CB"/>
<rect width="1000" height="1250" fill="url(#bg)"/>
<circle cx="500" cy="620" r="392" fill="#FFFFFF" opacity="0.14"/>
<circle cx="500" cy="620" r="392" fill="none" stroke="#3A231A" stroke-width="2" opacity="0.09"/>
<circle cx="500" cy="620" r="330" fill="url(#plate)"/>
<g clip-path="url(#dish)">
<g filter="url(#soft)"><circle cx="513" cy="624" r="96" fill="#4A3020" opacity="0.91"/><circle cx="501" cy="680" r="120" fill="#D9C3A5" opacity="0.87"/><circle cx="437" cy="698" r="120" fill="#8A6244" opacity="0.71"/><circle cx="455" cy="624" r="87" fill="#4A3020" opacity="0.92"/><circle cx="480" cy="603" r="107" fill="#D9C3A5" opacity="0.62"/><circle cx="521" cy="576" r="95" fill="#8A6244" opacity="0.64"/><circle cx="538" cy="595" r="114" fill="#4A3020" opacity="0.90"/></g>
<g filter="url(#tiny)"><circle cx="387" cy="495" r="8.7" fill="#4A3020" opacity="0.41"/><circle cx="572" cy="780" r="2.5" fill="#8A6244" opacity="0.33"/><circle cx="219" cy="665" r="5.5" fill="#D9C3A5" opacity="0.62"/><circle cx="593" cy="643" r="3.7" fill="#D9C3A5" opacity="0.40"/><circle cx="503" cy="628" r="7.3" fill="#8A6244" opacity="0.70"/><circle cx="729" cy="628" r="6.1" fill="#4A3020" opacity="0.55"/><circle cx="390" cy="867" r="5.9" fill="#4A3020" opacity="0.57"/><circle cx="703" cy="590" r="4.3" fill="#D9C3A5" opacity="0.34"/><circle cx="504" cy="765" r="4.8" fill="#8A6244" opacity="0.66"/><circle cx="286" cy="688" r="5.1" fill="#D9C3A5" opacity="0.31"/><circle cx="230" cy="500" r="3.0" fill="#8A6244" opacity="0.46"/><circle cx="468" cy="617" r="3.5" fill="#4A3020" opacity="0.49"/><circle cx="298" cy="816" r="6.2" fill="#8A6244" opacity="0.34"/><circle cx="416" cy="859" r="6.8" fill="#8A6244" opacity="0.43"/><circle cx="610" cy="669" r="8.0" fill="#8A6244" opacity="0.43"/><circle cx="801" cy="603" r="2.7" fill="#8A6244" opacity="0.69"/><circle cx="518" cy="638" r="7.8" fill="#4A3020" opacity="0.38"/><circle cx="466" cy="628" r="3.4" fill="#4A3020" opacity="0.56"/><circle cx="509" cy="609" r="7.0" fill="#8A6244" opacity="0.55"/><circle cx="373" cy="577" r="6.4" fill="#D9C3A5" opacity="0.67"/><circle cx="406" cy="567" r="5.8" fill="#8A6244" opacity="0.71"/><circle cx="493" cy="624" r="6.3" fill="#4A3020" opacity="0.31"/><circle cx="474" cy="662" r="5.8" fill="#4A3020" opacity="0.60"/><circle cx="405" cy="605" r="5.8" fill="#8A6244" opacity="0.39"/><circle cx="476" cy="708" r="4.0" fill="#4A3020" opacity="0.43"/><circle cx="535" cy="641" r="2.4" fill="#4A3020" opacity="0.57"/><circle cx="725" cy="633" r="4.1" fill="#D9C3A5" opacity="0.37"/><circle cx="531" cy="629" r="5.9" fill="#4A3020" opacity="0.73"/><circle cx="356" cy="655" r="4.2" fill="#4A3020" opacity="0.46"/><circle cx="421" cy="625" r="7.8" fill="#8A6244" opacity="0.39"/><circle cx="570" cy="664" r="4.3" fill="#D9C3A5" opacity="0.67"/><circle cx="279" cy="781" r="2.7" fill="#D9C3A5" opacity="0.49"/><circle cx="422" cy="380" r="6.0" fill="#D9C3A5" opacity="0.53"/><circle cx="500" cy="621" r="8.6" fill="#D9C3A5" opacity="0.51"/></g>
</g>
<circle cx="500" cy="620" r="330" fill="none" stroke="#FFFFFF" stroke-width="3" opacity="0.3"/>
<rect width="1000" height="1250" filter="url(#grain)" opacity="0.14" style="mix-blend-mode:multiply"/>
<rect width="1000" height="1250" fill="url(#vig)"/>
</svg>