<svg xmlns="http://www.w3.org/2000/svg" viewBox="0 0 1000 1250" width="1000" height="1250">
<defs>
<linearGradient id="bg" x1="0" y1="0" x2="0.35" y2="1">
<stop offset="0" stop-color="#E8DFCC"/>
<stop offset="1" stop-color="#E8DFCC" stop-opacity="0.62"/>
</linearGradient>
<radialGradient id="plate" cx="45%" cy="38%" r="70%">
<stop offset="0" stop-color="#FFFFFF" stop-opacity="0.5"/>
<stop offset="1" stop-color="#FFFFFF" stop-opacity="0.12"/>
</radialGradient>
<filter id="soft" x="-25%" y="-25%" width="150%" height="150%">
<feGaussianBlur stdDeviation="13"/>
</filter>
<filter id="tiny" x="-25%" y="-25%" width="150%" height="150%">
<feGaussianBlur stdDeviation="2.4"/>
</filter>
<filter id="grain">
<feTurbulence type="fractalNoise" baseFrequency="0.85" numOctaves="4" stitchTiles="stitch"/>
<feColorMatrix type="saturate" values="0"/>
</filter>
<radialGradient id="vig" cx="50%" cy="46%" r="76%">
<stop offset="0.5" stop-color="#3A231A" stop-opacity="0"/>
<stop offset="1" stop-color="#3A231A" stop-opacity="0.4"/>
</radialGradient>
<clipPath id="dish"><circle cx="500" cy="620" r="330"/></clipPath>
</defs>
<rect width="1000" height="1250" fill="#EFE0CB"/>
<rect width="1000" height="1250" fill="url(#bg)"/>
<circle cx="500" cy="620" r="392" fill="#FFFFFF" opacity="0.14"/>
<circle cx="500" cy="620" r="392" fill="none" stroke="#3A231A" stroke-width="2" opacity="0.09"/>
<circle cx="500" cy="620" r="330" fill="url(#plate)"/>
<g clip-path="url(#dish)">
<g filter="url(#soft)"><circle cx="614" cy="641" r="130" fill="#F7F3EA" opacity="0.70"/><circle cx="500" cy="630" r="125" fill="#D9CBAE" opacity="0.84"/><circle cx="438" cy="711" r="122" fill="#B9A681" opacity="0.77"/><circle cx="433" cy="622" r="111" fill="#F7F3EA" opacity="0.68"/><circle cx="491" cy="605" r="97" fill="#D9CBAE" opacity="0.65"/><circle cx="493" cy="486" r="82" fill="#B9A681" opacity="0.82"/><circle cx="583" cy="579" r="132" fill="#F7F3EA" opacity="0.70"/></g>
<g filter="url(#tiny)"><circle cx="325" cy="404" r="2.7" fill="#D9CBAE" opacity="0.35"/><circle cx="621" cy="494" r="9.0" fill="#B9A681" opacity="0.67"/><circle cx="369" cy="413" r="7.9" fill="#D9CBAE" opacity="0.30"/><circle cx="509" cy="744" r="4.9" fill="#F7F3EA" opacity="0.56"/><circle cx="722" cy="539" r="5.9" fill="#F7F3EA" opacity="0.33"/><circle cx="544" cy="539" r="5.0" fill="#D9CBAE" opacity="0.54"/><circle cx="474" cy="483" r="2.4" fill="#B9A681" opacity="0.59"/><circle cx="475" cy="358" r="4.4" fill="#D9CBAE" opacity="0.60"/><circle cx="575" cy="623" r="3.4" fill="#B9A681" opacity="0.40"/><circle cx="518" cy="659" r="6.3" fill="#F7F3EA" opacity="0.35"/><circle cx="470" cy="626" r="4.0" fill="#F7F3EA" opacity="0.42"/><circle cx="512" cy="496" r="5.7" fill="#D9CBAE" opacity="0.70"/><circle cx="271" cy="651" r="3.4" fill="#D9CBAE" opacity="0.57"/><circle cx="626" cy="446" r="8.5" fill="#F7F3EA" opacity="0.38"/><circle cx="271" cy="475" r="2.4" fill="#F7F3EA" opacity="0.34"/><circle cx="602" cy="867" r="5.2" fill="#D9CBAE" opacity="0.43"/><circle cx="610" cy="452" r="6.4" fill="#F7F3EA" opacity="0.32"/><circle cx="549" cy="681" r="5.8" fill="#F7F3EA" opacity="0.61"/><circle cx="695" cy="813" r="8.9" fill="#B9A681" opacity="0.42"/><circle cx="694" cy="758" r="6.1" fill="#D9CBAE" opacity="0.31"/><circle cx="381" cy="702" r="8.0" fill="#D9CBAE" opacity="0.36"/><circle cx="607" cy="782" r="6.6" fill="#F7F3EA" opacity="0.45"/><circle cx="557" cy="579" r="5.7" fill="#D9CBAE" opacity="0.55"/><circle cx="478" cy="731" r="2.8" fill="#D9CBAE" opacity="0.37"/><circle cx="614" cy="656" r="2.5" fill="#B9A681" opacity="0.71"/><circle cx="412" cy="608" r="5.2" fill="#F7F3EA" opacity="0.37"/><circle cx="765" cy="589" r="5.4" fill="#D9CBAE" opacity="0.35"/><circle cx="502" cy="605" r="7.2" fill="#D9CBAE" opacity="0.57"/><circle cx="447" cy="669" r="7.8" fill="#F7F3EA" opacity="0.50"/><circle cx="550" cy="534" r="3.1" fill="#D9CBAE" opacity="0.49"/><circle cx="296" cy="724" r="3.3" fill="#D9CBAE" opacity="0.43"/><circle cx="544" cy="774" r="3.9" fill="#F7F3EA" opacity="0.57"/><circle cx="443" cy="459" r="4.3" fill="#D9CBAE" opacity="0.41"/><circle cx="539" cy="623" r="7.4" fill="#D9CBAE" opacity="0.68"/></g>
</g>
<circle cx="500" cy="620" r="330" fill="none" stroke="#FFFFFF" stroke-width="3" opacity="0.3"/>
<rect width="1000" height="1250" filter="url(#grain)" opacity="0.14" style="mix-blend-mode:multiply"/>
<rect width="1000" height="1250" fill="url(#vig)"/>
</svg>