<svg xmlns="http://www.w3.org/2000/svg" viewBox="0 0 1000 1250" width="1000" height="1250">
<defs>
<linearGradient id="bg" x1="0" y1="0" x2="0.35" y2="1">
<stop offset="0" stop-color="#E0C7A8"/>
<stop offset="1" stop-color="#E0C7A8" stop-opacity="0.62"/>
</linearGradient>
<radialGradient id="plate" cx="45%" cy="38%" r="70%">
<stop offset="0" stop-color="#FFFFFF" stop-opacity="0.5"/>
<stop offset="1" stop-color="#FFFFFF" stop-opacity="0.12"/>
</radialGradient>
<filter id="soft" x="-25%" y="-25%" width="150%" height="150%">
<feGaussianBlur stdDeviation="13"/>
</filter>
<filter id="tiny" x="-25%" y="-25%" width="150%" height="150%">
<feGaussianBlur stdDeviation="2.4"/>
</filter>
<filter id="grain">
<feTurbulence type="fractalNoise" baseFrequency="0.85" numOctaves="4" stitchTiles="stitch"/>
<feColorMatrix type="saturate" values="0"/>
</filter>
<radialGradient id="vig" cx="50%" cy="46%" r="76%">
<stop offset="0.5" stop-color="#3A231A" stop-opacity="0"/>
<stop offset="1" stop-color="#3A231A" stop-opacity="0.4"/>
</radialGradient>
<clipPath id="dish"><circle cx="500" cy="620" r="330"/></clipPath>
</defs>
<rect width="1000" height="1250" fill="#EFE0CB"/>
<rect width="1000" height="1250" fill="url(#bg)"/>
<circle cx="500" cy="620" r="392" fill="#FFFFFF" opacity="0.14"/>
<circle cx="500" cy="620" r="392" fill="none" stroke="#3A231A" stroke-width="2" opacity="0.09"/>
<circle cx="500" cy="620" r="330" fill="url(#plate)"/>
<g clip-path="url(#dish)">
<g filter="url(#soft)"><circle cx="655" cy="661" r="94" fill="#A34A2C" opacity="0.74"/><circle cx="570" cy="711" r="77" fill="#F6EBD8" opacity="0.82"/><circle cx="417" cy="678" r="71" fill="#6B4326" opacity="0.73"/><circle cx="349" cy="598" r="81" fill="#A34A2C" opacity="0.63"/><circle cx="490" cy="614" r="113" fill="#F6EBD8" opacity="0.71"/><circle cx="503" cy="612" r="133" fill="#6B4326" opacity="0.70"/><circle cx="630" cy="552" r="122" fill="#A34A2C" opacity="0.75"/></g>
<g filter="url(#tiny)"><circle cx="623" cy="393" r="5.0" fill="#A34A2C" opacity="0.32"/><circle cx="472" cy="607" r="2.3" fill="#6B4326" opacity="0.35"/><circle cx="448" cy="772" r="7.7" fill="#F6EBD8" opacity="0.59"/><circle cx="616" cy="867" r="5.1" fill="#6B4326" opacity="0.40"/><circle cx="513" cy="802" r="5.3" fill="#A34A2C" opacity="0.48"/><circle cx="376" cy="787" r="2.7" fill="#6B4326" opacity="0.32"/><circle cx="353" cy="761" r="6.3" fill="#6B4326" opacity="0.35"/><circle cx="495" cy="653" r="3.7" fill="#6B4326" opacity="0.45"/><circle cx="351" cy="434" r="8.4" fill="#F6EBD8" opacity="0.40"/><circle cx="443" cy="517" r="4.5" fill="#F6EBD8" opacity="0.49"/><circle cx="499" cy="496" r="5.9" fill="#F6EBD8" opacity="0.60"/><circle cx="592" cy="549" r="6.6" fill="#A34A2C" opacity="0.50"/><circle cx="495" cy="611" r="5.9" fill="#6B4326" opacity="0.33"/><circle cx="574" cy="550" r="5.8" fill="#F6EBD8" opacity="0.70"/><circle cx="521" cy="879" r="4.3" fill="#6B4326" opacity="0.69"/><circle cx="582" cy="709" r="3.8" fill="#6B4326" opacity="0.49"/><circle cx="468" cy="641" r="7.5" fill="#A34A2C" opacity="0.36"/><circle cx="633" cy="499" r="5.2" fill="#F6EBD8" opacity="0.74"/><circle cx="525" cy="449" r="5.2" fill="#A34A2C" opacity="0.48"/><circle cx="775" cy="511" r="3.6" fill="#A34A2C" opacity="0.59"/><circle cx="338" cy="582" r="7.9" fill="#6B4326" opacity="0.72"/><circle cx="538" cy="872" r="8.8" fill="#A34A2C" opacity="0.53"/><circle cx="611" cy="462" r="2.5" fill="#6B4326" opacity="0.51"/><circle cx="582" cy="425" r="4.7" fill="#F6EBD8" opacity="0.61"/><circle cx="477" cy="675" r="4.0" fill="#F6EBD8" opacity="0.65"/><circle cx="670" cy="834" r="8.2" fill="#F6EBD8" opacity="0.38"/><circle cx="393" cy="700" r="8.8" fill="#F6EBD8" opacity="0.51"/><circle cx="506" cy="611" r="3.7" fill="#F6EBD8" opacity="0.40"/><circle cx="501" cy="621" r="5.7" fill="#A34A2C" opacity="0.33"/><circle cx="568" cy="592" r="6.1" fill="#6B4326" opacity="0.43"/><circle cx="605" cy="693" r="4.5" fill="#A34A2C" opacity="0.50"/><circle cx="546" cy="640" r="5.3" fill="#6B4326" opacity="0.37"/><circle cx="391" cy="823" r="7.1" fill="#F6EBD8" opacity="0.37"/><circle cx="249" cy="500" r="3.7" fill="#A34A2C" opacity="0.54"/></g>
</g>
<circle cx="500" cy="620" r="330" fill="none" stroke="#FFFFFF" stroke-width="3" opacity="0.3"/>
<rect width="1000" height="1250" filter="url(#grain)" opacity="0.14" style="mix-blend-mode:multiply"/>
<rect width="1000" height="1250" fill="url(#vig)"/>
</svg>