<svg xmlns="http://www.w3.org/2000/svg" viewBox="0 0 1000 1250" width="1000" height="1250">
<defs>
<linearGradient id="bg" x1="0" y1="0" x2="0.35" y2="1">
<stop offset="0" stop-color="#D6C2A6"/>
<stop offset="1" stop-color="#D6C2A6" stop-opacity="0.62"/>
</linearGradient>
<radialGradient id="plate" cx="45%" cy="38%" r="70%">
<stop offset="0" stop-color="#FFFFFF" stop-opacity="0.5"/>
<stop offset="1" stop-color="#FFFFFF" stop-opacity="0.12"/>
</radialGradient>
<filter id="soft" x="-25%" y="-25%" width="150%" height="150%">
<feGaussianBlur stdDeviation="13"/>
</filter>
<filter id="tiny" x="-25%" y="-25%" width="150%" height="150%">
<feGaussianBlur stdDeviation="2.4"/>
</filter>
<filter id="grain">
<feTurbulence type="fractalNoise" baseFrequency="0.85" numOctaves="4" stitchTiles="stitch"/>
<feColorMatrix type="saturate" values="0"/>
</filter>
<radialGradient id="vig" cx="50%" cy="46%" r="76%">
<stop offset="0.5" stop-color="#3A231A" stop-opacity="0"/>
<stop offset="1" stop-color="#3A231A" stop-opacity="0.4"/>
</radialGradient>
<clipPath id="dish"><circle cx="500" cy="620" r="330"/></clipPath>
</defs>
<rect width="1000" height="1250" fill="#EFE0CB"/>
<rect width="1000" height="1250" fill="url(#bg)"/>
<circle cx="500" cy="620" r="392" fill="#FFFFFF" opacity="0.14"/>
<circle cx="500" cy="620" r="392" fill="none" stroke="#3A231A" stroke-width="2" opacity="0.09"/>
<circle cx="500" cy="620" r="330" fill="url(#plate)"/>
<g clip-path="url(#dish)">
<g filter="url(#soft)"><circle cx="606" cy="637" r="80" fill="#3E5A6B" opacity="0.74"/><circle cx="593" cy="742" r="89" fill="#EFE6D6" opacity="0.69"/><circle cx="493" cy="642" r="137" fill="#8A6A4A" opacity="0.65"/><circle cx="450" cy="612" r="98" fill="#3E5A6B" opacity="0.83"/><circle cx="429" cy="515" r="68" fill="#EFE6D6" opacity="0.76"/><circle cx="503" cy="598" r="99" fill="#8A6A4A" opacity="0.72"/><circle cx="554" cy="576" r="79" fill="#3E5A6B" opacity="0.87"/></g>
<g filter="url(#tiny)"><circle cx="537" cy="624" r="7.5" fill="#3E5A6B" opacity="0.32"/><circle cx="269" cy="668" r="7.9" fill="#3E5A6B" opacity="0.45"/><circle cx="438" cy="515" r="3.2" fill="#8A6A4A" opacity="0.63"/><circle cx="575" cy="422" r="3.6" fill="#EFE6D6" opacity="0.68"/><circle cx="615" cy="396" r="3.1" fill="#EFE6D6" opacity="0.63"/><circle cx="494" cy="636" r="3.1" fill="#EFE6D6" opacity="0.74"/><circle cx="511" cy="582" r="6.2" fill="#3E5A6B" opacity="0.31"/><circle cx="399" cy="579" r="6.9" fill="#8A6A4A" opacity="0.30"/><circle cx="538" cy="735" r="9.0" fill="#8A6A4A" opacity="0.44"/><circle cx="709" cy="444" r="8.3" fill="#8A6A4A" opacity="0.62"/><circle cx="490" cy="508" r="2.8" fill="#3E5A6B" opacity="0.43"/><circle cx="760" cy="746" r="6.8" fill="#8A6A4A" opacity="0.59"/><circle cx="329" cy="763" r="6.9" fill="#8A6A4A" opacity="0.68"/><circle cx="382" cy="863" r="5.2" fill="#3E5A6B" opacity="0.42"/><circle cx="498" cy="608" r="4.8" fill="#EFE6D6" opacity="0.60"/><circle cx="242" cy="706" r="8.1" fill="#EFE6D6" opacity="0.35"/><circle cx="620" cy="793" r="5.8" fill="#8A6A4A" opacity="0.60"/><circle cx="440" cy="358" r="4.3" fill="#EFE6D6" opacity="0.40"/><circle cx="505" cy="692" r="5.9" fill="#3E5A6B" opacity="0.43"/><circle cx="294" cy="469" r="6.0" fill="#3E5A6B" opacity="0.66"/><circle cx="628" cy="793" r="3.3" fill="#EFE6D6" opacity="0.62"/><circle cx="554" cy="509" r="3.3" fill="#EFE6D6" opacity="0.36"/><circle cx="402" cy="391" r="2.0" fill="#3E5A6B" opacity="0.35"/><circle cx="490" cy="613" r="5.9" fill="#3E5A6B" opacity="0.49"/><circle cx="682" cy="462" r="6.0" fill="#8A6A4A" opacity="0.34"/><circle cx="573" cy="631" r="8.9" fill="#EFE6D6" opacity="0.61"/><circle cx="567" cy="363" r="8.6" fill="#8A6A4A" opacity="0.56"/><circle cx="508" cy="657" r="6.9" fill="#EFE6D6" opacity="0.73"/><circle cx="581" cy="845" r="3.8" fill="#EFE6D6" opacity="0.35"/><circle cx="487" cy="698" r="2.9" fill="#3E5A6B" opacity="0.57"/><circle cx="331" cy="691" r="4.1" fill="#3E5A6B" opacity="0.31"/><circle cx="356" cy="633" r="8.1" fill="#8A6A4A" opacity="0.63"/><circle cx="451" cy="597" r="3.7" fill="#EFE6D6" opacity="0.39"/><circle cx="573" cy="568" r="4.2" fill="#3E5A6B" opacity="0.63"/></g>
</g>
<circle cx="500" cy="620" r="330" fill="none" stroke="#FFFFFF" stroke-width="3" opacity="0.3"/>
<rect width="1000" height="1250" filter="url(#grain)" opacity="0.14" style="mix-blend-mode:multiply"/>
<rect width="1000" height="1250" fill="url(#vig)"/>
</svg>